<svg width="20" height="18" viewBox="0 0 20 18" fill="none" xmlns="http://www.w3.org/2000/svg">
<path d="M0 12.5714V3.42857H4L8 0V16L4 12.5714H0Z" transform="translate(1 1)" stroke="white" stroke-width="2" stroke-linecap="round" stroke-linejoin="round"/>
<path d="M0.91567 -0.401931C0.693689 -0.907642 0.103779 -1.13765 -0.401931 -0.91567C-0.907642 -0.693689 -1.13765 -0.103779 -0.91567 0.401931L0.91567 -0.401931ZM-0.91567 5.09807C-1.13765 5.60378 -0.907642 6.19369 -0.401931 6.41567C0.103779 6.63765 0.693689 6.40764 0.91567 5.90193L-0.91567 5.09807ZM-0.91567 0.401931C-0.653509 0.999179 -0.5 1.84825 -0.5 2.75C-0.5 3.65175 -0.653509 4.50082 -0.91567 5.09807L0.91567 5.90193C1.32018 4.9804 1.5 3.83886 1.5 2.75C1.5 1.66114 1.32018 0.519604 0.91567 -0.401931L-0.91567 0.401931Z" transform="translate(14 6.25)" fill="white"/>
<path d="M0.881195 -0.472754C0.6201 -0.959424 0.0139166 -1.14229 -0.472754 -0.881195C-0.959424 -0.6201 -1.14229 -0.0139166 -0.881195 0.472754L0.881195 -0.472754ZM-0.881195 8.52725C-1.14229 9.01392 -0.959424 9.6201 -0.472754 9.88119C0.0139166 10.1423 0.6201 9.95942 0.881195 9.47275L-0.881195 8.52725ZM-0.881195 0.472754C-0.311983 1.53374 -2.54379e-08 2.98952 -2.54379e-08 4.5C-2.54379e-08 6.01048 -0.311983 7.46626 -0.881195 8.52725L0.881195 9.47275C1.64532 8.04846 2 6.24688 2 4.5C2 2.75312 1.64532 0.951539 0.881195 -0.472754L-0.881195 0.472754Z" transform="translate(18 4.5)" fill="white"/>
</svg>
