<svg width="20" height="18" viewBox="0 0 20 18" fill="none" xmlns="http://www.w3.org/2000/svg">
<path d="M0 12.5714V3.42857H4L8 0V16L4 12.5714H0Z" transform="translate(1 1)" stroke="white" stroke-width="2" stroke-linecap="round" stroke-linejoin="round"/>
<path d="M-0.707107 4.29289C-1.09763 4.68342 -1.09763 5.31658 -0.707107 5.70711C-0.316583 6.09763 0.316583 6.09763 0.707107 5.70711L-0.707107 4.29289ZM5.70711 0.707107C6.09763 0.316583 6.09763 -0.316583 5.70711 -0.707107C5.31658 -1.09763 4.68342 -1.09763 4.29289 -0.707107L5.70711 0.707107ZM0.707107 -0.707107C0.316583 -1.09763 -0.316583 -1.09763 -0.707107 -0.707107C-1.09763 -0.316583 -1.09763 0.316583 -0.707107 0.707107L0.707107 -0.707107ZM4.29289 5.70711C4.68342 6.09763 5.31658 6.09763 5.70711 5.70711C6.09763 5.31658 6.09763 4.68342 5.70711 4.29289L4.29289 5.70711ZM0.707107 5.70711L5.70711 0.707107L4.29289 -0.707107L-0.707107 4.29289L0.707107 5.70711ZM-0.707107 0.707107L4.29289 5.70711L5.70711 4.29289L0.707107 -0.707107L-0.707107 0.707107Z" transform="translate(14 6.5)" fill="white"/>
</svg>
