<svg width="40" height="40" viewBox="0 0 40 40" fill="none" xmlns="http://www.w3.org/2000/svg">
<path fill-rule="evenodd" clip-rule="evenodd" d="M39.9899 20C39.9899 31.0457 31.0378 40 19.995 40C8.95203 40 0 31.0457 0 20C0 14.4771 2.23804 9.47705 5.85632 5.85791C7.69812 4.01562 9.89758 2.53125 12.3414 1.51758C13.5377 1.02124 14.7926 0.637939 16.0928 0.380615C16.7297 0.254639 17.3774 0.158936 18.0345 0.0949707C18.6796 0.0322266 19.3335 0 19.995 0C20.6564 0 21.3104 0.0322266 21.9553 0.0949707C22.6124 0.158936 23.2601 0.254639 23.8971 0.380615C25.1973 0.637939 26.4521 1.02124 27.6484 1.51758C30.0924 2.53125 32.2917 4.01562 34.1335 5.85791C37.7518 9.47705 39.9899 14.4771 39.9899 20ZM28.5377 16.4458C29.2947 15.6414 29.2562 14.3755 28.4518 13.6187C27.6473 12.8616 26.3816 12.9001 25.6246 13.7046L18.4803 21.2974L15.1213 18.1416C14.3164 17.3853 13.0507 17.4248 12.2943 18.2297C11.538 19.0349 11.5775 20.3005 12.3826 21.0569L17.198 25.5808C18.0026 26.3369 19.2675 26.2979 20.0239 25.4939L28.5377 16.4458Z" fill="white"/>
</svg>
